<?xml version="1.0" encoding="utf-8"?>
<!-- Generator: Adobe Illustrator 19.0.0, SVG Export Plug-In . SVG Version: 6.00 Build 0)  -->
<svg version="1.1" id="Layer_1" xmlns="http://www.w3.org/2000/svg" xmlns:xlink="http://www.w3.org/1999/xlink" x="0px" y="0px"
	 viewBox="-43 136 524 521" style="enable-background:new -43 136 524 521;" xml:space="preserve">
<style type="text/css">
	.st0{opacity:0.1;}
	.st1{fill:url(#XMLID_2_);}
	.st2{fill:url(#XMLID_3_);}
	.st3{fill:url(#XMLID_4_);}
	.st4{fill:url(#XMLID_5_);}
	.st5{fill:url(#XMLID_6_);}
	.st6{fill:url(#XMLID_7_);}
	.st7{fill:url(#XMLID_8_);}
	.st8{fill:url(#XMLID_9_);}
	.st9{fill:url(#XMLID_10_);}
	.st10{fill:url(#XMLID_11_);}
</style>
<g id="XMLID_2445_" class="st0">
	
		<linearGradient id="XMLID_2_" gradientUnits="userSpaceOnUse" x1="169.9313" y1="332.7305" x2="169.9313" y2="344.4244" gradientTransform="matrix(1 0 0 -1 0 794)">
		<stop  offset="0" style="stop-color:#FFFFFF;stop-opacity:0"/>
		<stop  offset="0.1" style="stop-color:#FFFFFF;stop-opacity:0"/>
		<stop  offset="0.5" style="stop-color:#FFFFFF"/>
		<stop  offset="0.9" style="stop-color:#FFFFFF;stop-opacity:0"/>
		<stop  offset="1" style="stop-color:#FFFFFF;stop-opacity:0"/>
	</linearGradient>
	<path id="XMLID_2599_" class="st1" d="M173,452.7c0.4,2.7,0.1,5.5,0.1,8.6c-0.7-0.4-1.4-0.5-1.4-0.7c0.1-4.3-3.1-7.2-5.1-10.6
		C169.6,448.9,172.6,450.2,173,452.7z"/>
	
		<linearGradient id="XMLID_3_" gradientUnits="userSpaceOnUse" x1="169.4717" y1="354.0305" x2="169.4717" y2="364.4305" gradientTransform="matrix(1 0 0 -1 0 794)">
		<stop  offset="0" style="stop-color:#FFFFFF;stop-opacity:0"/>
		<stop  offset="0.1" style="stop-color:#FFFFFF;stop-opacity:0"/>
		<stop  offset="0.5" style="stop-color:#FFFFFF"/>
		<stop  offset="0.9" style="stop-color:#FFFFFF;stop-opacity:0"/>
		<stop  offset="1" style="stop-color:#FFFFFF;stop-opacity:0"/>
	</linearGradient>
	<path id="XMLID_2598_" class="st2" d="M177,440c-1.9-1.5-3.4-2.9-5-3.9c-1.7-1.1-3.4-2.2-5.9-1.9c-2.4,0.4-3.6-1.6-4.3-4.6
		c2,0.9,3.5,1.6,5,2.2c0.4,0.2,0.8,0.4,1.2,0.4c0.9,0,2.2-0.4,2.8,0c2.2,1.8,4.2,3.8,6.2,5.8C177.2,438.3,177,439,177,440z"/>
	
		<linearGradient id="XMLID_4_" gradientUnits="userSpaceOnUse" x1="168.6001" y1="372.2305" x2="168.6001" y2="389.155" gradientTransform="matrix(1 0 0 -1 0 794)">
		<stop  offset="0" style="stop-color:#FFFFFF;stop-opacity:0"/>
		<stop  offset="0.1" style="stop-color:#FFFFFF;stop-opacity:0"/>
		<stop  offset="0.5" style="stop-color:#FFFFFF"/>
		<stop  offset="0.9" style="stop-color:#FFFFFF;stop-opacity:0"/>
		<stop  offset="1" style="stop-color:#FFFFFF;stop-opacity:0"/>
	</linearGradient>
	<path id="XMLID_2597_" class="st3" d="M162.4,407.4c-1-0.3-1.9-1.1-3.1-1.8c0.8-0.6,1-0.8,1.1-0.7c5.3,2.1,11.3,3.2,14.4,8.8
		c0.3,0.6,0.9,1,1.3,1.5c1.3,1.3,2.8,2.4,0.7,4.3c-0.4,0.3-0.3,1.1-0.6,2.3c-1.2-2.7-2.1-4.9-3.3-7
		C170.7,410.5,166.8,408.6,162.4,407.4z"/>
	
		<linearGradient id="XMLID_5_" gradientUnits="userSpaceOnUse" x1="178.3234" y1="368.6776" x2="178.3234" y2="372.6443" gradientTransform="matrix(1 0 0 -1 0 794)">
		<stop  offset="0" style="stop-color:#FFFFFF;stop-opacity:0"/>
		<stop  offset="0.1" style="stop-color:#FFFFFF;stop-opacity:0"/>
		<stop  offset="0.5" style="stop-color:#FFFFFF"/>
		<stop  offset="0.9" style="stop-color:#FFFFFF;stop-opacity:0"/>
		<stop  offset="1" style="stop-color:#FFFFFF;stop-opacity:0"/>
	</linearGradient>
	<path id="XMLID_2596_" class="st4" d="M177.2,425c0-1.1-0.6-2.6,0.3-3.4c0.4-0.3,1.2-0.3,1.6,0.1c0.6,0.6,0.7,3,0,3.5
		C178.6,425.6,177.2,425.1,177.2,425z"/>
	
		<linearGradient id="XMLID_6_" gradientUnits="userSpaceOnUse" x1="210.4273" y1="346.1305" x2="210.4273" y2="362.5305" gradientTransform="matrix(1 0 0 -1 0 794)">
		<stop  offset="0" style="stop-color:#FFFFFF;stop-opacity:0"/>
		<stop  offset="0.1" style="stop-color:#FFFFFF;stop-opacity:0"/>
		<stop  offset="0.5" style="stop-color:#FFFFFF"/>
		<stop  offset="0.9" style="stop-color:#FFFFFF;stop-opacity:0"/>
		<stop  offset="1" style="stop-color:#FFFFFF;stop-opacity:0"/>
	</linearGradient>
	<path id="XMLID_2595_" class="st5" d="M220.5,447.9c-6.8-4.4-13.5-8.7-20.2-13.1c0.1-0.3,0.1-0.5,0.2-0.8c2.6,0.7,5.2,1.3,8,2.1
		c0.1-1.5,0.3-3,0.4-4.5c0.2,0,0.4-0.1,0.5-0.1c0.3,0.6,0.7,1.1,0.7,1.7c0.2,3.5,2.1,5.7,5,7.3C218.2,442.2,219.5,444.9,220.5,447.9
		z"/>
	
		<linearGradient id="XMLID_7_" gradientUnits="userSpaceOnUse" x1="226.6824" y1="496.8363" x2="226.6824" y2="538.3812" gradientTransform="matrix(1 0 0 -1 0 794)">
		<stop  offset="0" style="stop-color:#FFFFFF;stop-opacity:0"/>
		<stop  offset="0.1" style="stop-color:#FFFFFF;stop-opacity:0"/>
		<stop  offset="0.5" style="stop-color:#FFFFFF"/>
		<stop  offset="0.9" style="stop-color:#FFFFFF;stop-opacity:0"/>
		<stop  offset="1" style="stop-color:#FFFFFF;stop-opacity:0"/>
	</linearGradient>
	<path id="XMLID_2594_" class="st6" d="M242.1,286.2l-0.3,0.6l0.1-0.6l-0.1-0.3l0,0h0.2l0.1-0.1l0.1-0.1c0.1-0.2,0.2-0.4,0.2-0.6
		c0.1-0.2,0.1-0.4,0.2-0.6s0.1-0.4,0.2-0.6c0.1-0.2,0.1-0.4,0.2-0.6c0.5-1.5,0.6-3.1,0.6-4.8c0-0.4,0-0.8-0.1-1.2
		c0-0.4-0.1-0.8-0.1-1.2l-0.1-0.6l-0.1-0.6c-0.1-0.4-0.2-0.8-0.3-1.2c-0.4-1.6-1.1-3.1-2-4.5l-0.7-1c-0.2-0.4-0.5-0.6-0.8-1
		l-0.4-0.5c-0.1-0.2-0.3-0.3-0.4-0.4c-0.3-0.3-0.6-0.6-0.9-0.9s-0.6-0.5-0.9-0.8l-0.2-0.2l-0.2-0.2l-0.5-0.3l-0.5-0.3
		c-0.1-0.1-0.2-0.1-0.3-0.2l-0.3-0.2l-1.1-0.5v0.2l0,0l0,0l0,0h0.1v-0.2v0.1v0.1h0.1v-0.1v0.1l0,0l-0.1-0.2l-0.1-0.2l-0.3-0.2
		l-0.6-0.3c-0.4-0.2-0.8-0.3-1.1-0.5c-0.8-0.3-1.6-0.5-2.4-0.7c-0.4-0.1-0.8-0.1-1.2-0.2c-0.2,0-0.4-0.1-0.6-0.1h-0.6
		c-0.4,0-0.8-0.1-1.2-0.1h-1.2c-1.6,0.2-3.3,0.5-4.8,1c-0.4,0.1-0.8,0.3-1.1,0.5l-0.6,0.2l-0.5,0.3c-0.4,0.2-0.7,0.4-1.1,0.6
		c-0.3,0.2-0.7,0.4-1,0.7c-0.4,0.2-0.6,0.5-1,0.7c-0.3,0.3-0.6,0.3-0.9,0.6s-0.6,0.7-0.9,0.7c-0.3,0.5-0.5,0.7-0.8,1
		c-0.5,0.5-1,1.4-1.5,2.1l-0.1,0.1v0.1h0.3h0.4l0,0h-0.4l-0.3,0.2l-0.4,0.5c-0.2,0.3-0.4,0.7-0.6,1c-1.3,2.8-1.9,5.8-1.7,8.6
		c0,0.7,0.1,1.4,0.2,2c0.3,2,1,3.8,1.8,5.3c0.1,0.1,0.1,0.3,0.2,0.4c0.1,0.3,0.3,0.5,0.4,0.7c0.1,0.2,0.3,0.5,0.4,0.7
		c0.3,0.4,0.6,0.8,0.9,1.2c0.2,0.2,0.3,0.4,0.5,0.6c0.4,0.4,0.8,0.8,1.1,1.2c0.3,0.3,0.6,0.6,0.9,0.8s0.6,0.4,0.8,0.6
		c0.3,0.2,0.5,0.4,0.7,0.5c0.2,0.2,0.5,0.3,0.6,0.4c0.5,0.3,0.8,0.5,1,0.6c-0.2-0.1-0.5-0.3-1-0.6c-0.1-0.1-0.2-0.1-0.3-0.2l0,0
		c-0.1-0.1-0.2-0.1-0.3-0.2l0,0l-0.1-0.1c-0.2-0.1-0.4-0.3-0.6-0.4c-0.1,0-0.1-0.1-0.2-0.1c0,0,0,0-0.1,0c-0.2-0.1-0.4-0.3-0.6-0.4
		c-0.3-0.2-0.6-0.5-0.9-0.8c-1.2-1.1-2.7-2.6-3.9-4.6s-2.3-4.5-2.8-7.4s-0.4-6.2,0.6-9.5c0.1-0.4,0.3-0.8,0.4-1.2l0.2-0.6l0.1-0.3
		l0.2-0.3c0.4-0.8,0.7-1.5,1.3-2.3c0.3-0.4,0.5-0.8,0.8-1.2s0.6-0.7,0.9-1.1c0.3-0.4,0.6-0.7,1-1.1l0.5-0.5c0.2-0.2,0.3-0.3,0.5-0.5
		c1.4-1.3,3.2-2.4,5-3.3c0.5-0.2,0.9-0.4,1.4-0.6s1-0.3,1.5-0.5l0.7-0.2c0.3-0.1,0.5-0.1,0.8-0.2c0.5-0.1,1-0.2,1.6-0.3
		c2.1-0.3,4.2-0.2,6.4,0.1l1.6,0.3l0.4,0.1l0.4,0.1l0.8,0.3c0.5,0.2,1,0.3,1.5,0.6l0.7,0.3l0.4,0.2l0.2,0.1h0.1l0,0l0,0
		c0,0,0.1,0,0.1,0.1l1.2,0.7l0.3,0.2c0.1,0.1,0.2,0.1,0.3,0.2l0.7,0.5l0.7,0.5l0.3,0.3l0.3,0.3c0.4,0.4,0.8,0.7,1.2,1.1
		c1.5,1.5,2.8,3.3,3.8,5.2c0.2,0.5,0.4,1,0.7,1.4c0.1,0.2,0.2,0.5,0.3,0.7l0.2,0.7c0.2,0.5,0.4,1,0.5,1.5s0.2,1,0.3,1.5
		c0.3,2,0.4,4,0.2,6c-0.3,1.9-0.7,3.8-1.5,5.5c-0.3,0.9-0.8,1.7-1.2,2.5l-0.2,0.4l-0.2,0.3l-0.4,0.5c-0.2,0.3-0.4,0.7-0.7,1
		s-0.6,0.7-0.8,1c-0.1,0.2-0.3,0.3-0.4,0.5l-0.5,0.4c-0.3,0.3-0.6,0.6-0.9,0.9s-0.6,0.5-0.9,0.8c-0.6,0.5-1.3,0.9-1.9,1.4
		c-0.3,0.2-0.7,0.4-1,0.6s-0.7,0.4-1,0.5c-2.7,1.3-5.3,1.8-7.6,2s-4.4-0.1-6-0.5c-0.4-0.1-0.8-0.2-1.2-0.3c-0.2-0.1-0.3-0.1-0.5-0.2
		c-0.1,0-0.2-0.1-0.2-0.1c-0.1,0-0.2,0-0.2-0.1c-0.2-0.1-0.5-0.2-0.7-0.3c-0.1-0.1-0.3-0.1-0.4-0.2c0,0,0,0-0.1,0
		c-0.1-0.1-0.2-0.1-0.3-0.1c-0.5-0.2-0.8-0.4-1-0.5c0.2,0.1,0.5,0.2,1,0.4c0.2,0.1,0.4,0.2,0.7,0.3c0.3,0.1,0.5,0.2,0.8,0.3
		s0.6,0.2,1,0.3c0.4,0.1,0.7,0.2,1.2,0.2c1.6,0.3,3.7,0.5,5.9,0.2c2.3-0.3,4.8-1.1,7.1-2.6c1.2-0.8,2.3-1.6,3.3-2.7
		c0.3-0.3,0.5-0.5,0.8-0.8c0.2-0.3,0.5-0.6,0.7-0.9l0.3-0.5c0.1-0.2,0.2-0.3,0.3-0.5s0.2-0.3,0.3-0.5s0.2-0.3,0.3-0.5
		c0.2-0.3,0.4-0.7,0.6-1.1L242.1,286.2z"/>
	
		<linearGradient id="XMLID_8_" gradientUnits="userSpaceOnUse" x1="239.8772" y1="341.5305" x2="239.8772" y2="354.2305" gradientTransform="matrix(1 0 0 -1 0 794)">
		<stop  offset="0" style="stop-color:#FFFFFF;stop-opacity:0"/>
		<stop  offset="0.1" style="stop-color:#FFFFFF;stop-opacity:0"/>
		<stop  offset="0.5" style="stop-color:#FFFFFF"/>
		<stop  offset="0.9" style="stop-color:#FFFFFF;stop-opacity:0"/>
		<stop  offset="1" style="stop-color:#FFFFFF;stop-opacity:0"/>
	</linearGradient>
	<path id="XMLID_2593_" class="st7" d="M243,442.7c-1.4,2.9-2.9,5.7-4.5,8.5c-0.4,0.7-1.5,0.9-2.3,1.3c0.8-5.3,3.1-9.3,6.4-12.7
		c0.3,0.1,0.6,0.2,0.9,0.3C243.2,440.9,243.3,441.9,243,442.7z"/>
	
		<linearGradient id="XMLID_9_" gradientUnits="userSpaceOnUse" x1="298.2273" y1="186" x2="298.2273" y2="234.3" gradientTransform="matrix(1 0 0 -1 0 794)">
		<stop  offset="0" style="stop-color:#FFFFFF;stop-opacity:0"/>
		<stop  offset="0.1" style="stop-color:#FFFFFF;stop-opacity:0"/>
		<stop  offset="0.5" style="stop-color:#FFFFFF"/>
		<stop  offset="0.9" style="stop-color:#FFFFFF;stop-opacity:0"/>
		<stop  offset="1" style="stop-color:#FFFFFF;stop-opacity:0"/>
	</linearGradient>
	<path id="XMLID_2592_" class="st8" d="M309.8,599.9c1.4,0.9,3,1.4,4.5,2.1c-4.5,2.1-9.1,4.1-13.8,6c-3.2-8.2-7.2-16.2-10.7-24.3
		c-1.6-3.8-3.4-7.6-5-11.5c-0.6-1.4-0.8-3-1.1-4.6c-0.4-1.9-0.6-3.8-1-5.7c-0.1-0.6-0.4-1.2-0.6-1.9c0.2-0.1,0.5-0.2,0.7-0.3
		c1.9,4.6,3.8,9.3,5.8,13.9c0.6,1.5,1.6,2.8,2.6,4.1c2.4,3.2,5.1,6.1,7.2,9.5c1.6,2.6,3.1,4.9,5.6,6.7c1.2,0.8,2.2,2,3.2,3
		C308.2,598,308.8,599.3,309.8,599.9z"/>
	
		<linearGradient id="XMLID_10_" gradientUnits="userSpaceOnUse" x1="217.1273" y1="170.1" x2="217.1273" y2="625.9" gradientTransform="matrix(1 0 0 -1 0 794)">
		<stop  offset="0" style="stop-color:#FFFFFF;stop-opacity:0"/>
		<stop  offset="0.1" style="stop-color:#FFFFFF;stop-opacity:0"/>
		<stop  offset="0.5" style="stop-color:#FFFFFF"/>
		<stop  offset="0.9" style="stop-color:#FFFFFF;stop-opacity:0"/>
		<stop  offset="1" style="stop-color:#FFFFFF;stop-opacity:0"/>
	</linearGradient>
	<path id="XMLID_2586_" class="st9" d="M216.7,168.1c-125.9,0-227.9,102-227.9,227.9s102,227.9,227.9,227.9c9.5,0,18.9-0.6,28.1-1.7
		c-0.6-1.6-1.2-3.2-1.7-4.8c-1.3-3.9-2.5-7.9-3.4-11.8c-0.3-1.2-0.6-2.4-0.8-3.6c-1.7-4.6-2.6-9-2.4-12.6c0.3-4.9-0.7-9.8-1.3-14.8
		c-0.8-6.8-1.8-13.5-2.6-20.2c-0.4-3.5-0.5-7.1-0.7-10.6c-0.2-0.1-0.5-0.1-0.7-0.2c-1.2,3-2.6,5.9-3.6,9c-0.8,2.3-2.1,3.2-4.3,2.4
		c-3.3-1.1-6.5-2.4-9.8-3.6c-1.9-0.7-5.8-2.4-5.8-2.4l-2.3-9.5c0,0,8.8-11.6,11.2-18.4c1.2-3.5,2.8-7.6,0.2-11.4
		c-0.4-0.6-1.4-1.3-2.1-1.3c-2.2-0.1-3.6-1.1-4.4-3c-2.5-6-4.9-12.1-7.4-18.2c-1-2.5,0-4.9,1.2-7c1-1.7,0.7-2.6-1-3.5
		c-1.8-0.9-3.3-2.1-5-3.1c-2.3-1.3-3.7-1-4.8,1.4c-0.9,2-1.4,4.3-2.1,6.4c-0.6,1.7-1.2,3.4-2.3,4.9c-1.4-3.5,3.9-6.2,0.5-10.4
		c-0.8,2-1.6,3.5-1.9,5.1c-0.7,3.4-1.6,4.4-5.2,4.8c-0.9,0.1-1.7,0.4-2.8,0.6c2.5,3.1,4.7,0.4,7,0.2c-4.4,3.6-0.9,8.9-3.5,12.9
		c-0.2-1.8-0.4-3.7-0.7-5.5c-0.1,0-0.2,0-0.3-0.1c-0.2,0.6-0.4,1.2-0.4,1.8c-0.6,6.1-1.2,12.2-1.7,18.2s-1.1,11.9-1.6,17.9
		c0,0.4-0.1,0.9-0.3,1.3c-0.7,1.9-1.3,3.8-2.1,5.6c-1.2,2.6-3.5,0.1-5.4,1.2c0.1,0.6,0.1,1.3,0.2,2.1c-0.9-0.1-1.8-0.1-2.7-0.2
		c-0.1,0.2-0.1,0.3-0.2,0.5c1.1,0.5,2.3,1,3.4,1.6c1.5,0.9,3,1.9,4.3,3.1c0.3,0.3,0.1,1.3,0.1,1.9c-0.2,2.6-0.5,7.7-0.5,7.7
		l-4.4,6.9l-2.4,2.4c0,0-1.5,4.7-2.2,6.7h-8c1.1,4,3.1,4.9,6.5,4.8c-1.2,3-2.3,6-3.5,9c-5.2-1.4-10.3-2.5-15.3-4.1
		c-2.9-0.9-8.1-4.1-8.1-4.1l-0.8-5.2c0,0,4.4-5.9,4.7-9.8c0-0.6,0.1-1.3,0.3-1.8c1.5-3-2.2-6.8-2.2-6.8l-0.9-3.6l5.6-14.9l3.6-2.8
		l2.4-2.2c0,0,2.3-11.8,2.9-17.7c0.7-8.7,1.2-17.4,2-26c0.2-2.4,0.5-4.5-1.3-6.5c-0.5-0.5-0.4-1.9-0.3-2.8c0.8-4.8,1.8-9.6,2.6-14.4
		c0.2-1.1-0.2-2.3-0.7-3.3c-1.6-3.5-5.9-6.8-5-10.5c0.3-1.3,2-1.2,2.4-1.9c0.3-0.5,0.5-1.7,0.2-2c-3.1-2.4-3.2-5.6-3.2-9.1
		c0-3.7,1.4-6.5,3.7-9.1c0.1-0.1,0-0.2-0.6,0c-0.8-2-1.8-3.9-2.3-6c-0.6-2.4-0.8-5-1.3-7.5c-0.9-5.2,0.2-7,5.4-8.3
		c0.5-0.1,1.1,0,1.5-0.3c1-0.6,2.6-1.4,2.7-2.2c0.1-1.7-1.7-2.5-3-3.5c-2.7-2.1-2.8-0.7-4.1-3.9c-1.5-3.9-1.6-7.2-1.8-11.4
		c-0.1-2.4,1.1-4.8,1.8-7.2c0.1-0.4,1-0.7,1.5-0.7c5.9,0.5,11.8,0.9,17.6,1.7c1.3,0.2,2.6,1.6,3.7,2.6c2.5,2.1,5.1,4.2,7.2,6.6
		c1.8,2.1,2,5.3,4.9,6.9c0.5,0.3,0.2,1.9,0.4,3c0.1,0.7,0.5,1.3,0.7,2c0.6-0.5,1.6-0.9,1.6-1.4c0.1-3.2,0.3-6.4-0.2-9.5
		c-0.7-3.9-3.6-6.7-6.8-8.6c-3.3-2-5.6-4.6-7.2-8.1c0.5-1,0.9-2.2,1.7-3.1c0.8-1,1.9-2.4,2.8-2.4c2.6-0.1,2.9-1.6,3.2-3.5
		c0.7-5.3,1.6-10.5,2.4-15.9c-0.3-0.2-0.6-0.4-1-0.6c-1.8-0.9-4.2-1.9-3.8-4.1c0.4-2.4,0-5.7,3.5-6.7c0.3-0.1,0.7-0.6,0.8-0.9
		c1.4-4.6,2.8-9.3,4.2-14c-5-2.1-9.4-4.5-14-5.8c-9.7-2.8-28.9-9.2-28.9-9.2l-10.9-1.5l-4.8-4.1c0,0-1.1-1.8-1.9-2.1
		c-2.1-0.9-6.5-2.1-6.5-2.1l-2.5-4.6c0,0,7.2-22.8,10.7-34.2c0.5-1.7,1.5-5.3,1.5-5.3l5-3.3c0,0,3.2,0.8,5.1,1.3
		c0.4-0.9,0.7-1.8,1.2-3c-2.2-1.1-6.3-3.1-6.3-3.1l-1.9-4.6c0,0,3.6-8.1,5.1-12.3c2.6-7.3,7.3-22.1,7.3-22.1l7.1-3.1
		c0,0,4.4,1.8,5.5-1.5c0.1-0.3,0.6-0.6,1.5-1.4c-0.3,2.1-0.4,3.5-0.8,4.9c-2.7,8.6-5.6,17.3-8.2,25.9c-0.4,1.3,0,2.8-0.1,4.2
		s-0.3,2.7-0.7,4c-0.5,2-1.1,3.9-1.7,5.9c0.3,0.2,0.5,0.4,0.8,0.6c0.7-0.5,1.9-0.8,2.2-1.5c3-8.5,6-17.1,8.6-25.7
		c1.4-4.6,1.9-9.5,2.9-14.2c0.4-2.1,1.8-2.4,4.3-1.2c3.5,1.7,7,3.6,10.6,5c9.8,4,19.6,7.6,29.3,11.6c7.5,3.1,14.7,6.6,22.1,9.9
		c0.9,0.4,1.7,1.1,2.8,1.8c-0.9,0.2-1.3,0.4-2.1,0.6c5.3,3.1,10.5,5.5,16.3,6.5c5.1,0.9,10.2,2.3,15.3,3.3c1.1,0.2,2.2-0.1,3.4-0.2
		c0.7-0.1,1.5-0.3,2.2-0.2c1.9,0.4,3.9,1.1,5.8,1.5c1.5,0.3,2.1,1,2,2.5c-0.5,4.6-0.5,9.3-1.5,13.7c-2,8.4-4.7,16.6-7,24.9
		c-0.2,0.9-0.3,1.8-0.5,2.7c0.2,0.1,0.5,0.2,0.7,0.4c0.5-0.7,1.2-1.3,1.4-2c3.5-9,7.1-18,10.4-27.1c2-5.6,3.4-11.3,5.4-16.9
		c0.5-1.5,2.2-2.7,3.7-4.4c1.4,2,2.3,3.5,3.4,4.8c0.7,0.8,1.7,1.6,2.7,2c6,2,18.2,5.7,18.2,5.7l6.5,4.1c0,0,1.2,1.3,1.9,1.8
		c3.8,3,4,3.7,2.3,8.4c-2,5.8-4.1,11.7-6,17.6c-0.5,1.4-0.7,2.9,0.9,4c0.4,0.3,0.4,1.4,0.2,2.1c-0.8,2.8-1.5,5.6-2.8,8.1
		c-2.1,3.9-0.9,8.1-1.8,12c-0.6,2.6-1.3,5.3-1.6,7.9c-0.3,2.2-0.1,4.4-0.1,6.6c0.3,0,0.5,0.1,0.8,0.1c0.8-3.2,1.5-6.4,2.4-9.5
		c3.3-11.1,6.3-22.3,10.1-33.3c2.4-7.1,4.2-14.2,4.9-21.5c0.1-0.8,0.3-1.7,0.5-3c0.9,2.1-0.6,5,2.7,5.1c-0.9,4-0.2,5,4.7,6.4
		c-0.4,3.3-0.9,6.7-1.4,10.1c-0.6,4.3-1.1,8.6-1.7,13c-0.2,1.1-0.3,2.3-0.6,3.3c-4.8,14.8-9.5,29.6-14.4,44.3
		c-1.9,5.8-3.8,11.6-6.5,17.1c-2.2,4.4-5.2,6.8-9.7,2.2c-0.3-0.3-0.8-0.6-1.2-0.8c-2.9,4.2-3.3,4.4-8.5,3.2
		c-13.3-3.2-26.6-6.5-39.9-9.8c-3.7-0.9-4.5-2.1-4.3-5.9c0-0.5-0.3-1-0.5-1.5c-0.5,0.3-1.1,0.4-1.4,0.8c-1.9,2.9-3.9,3.7-7.2,2.7
		c-2.1-0.7-4.2-1.1-6.1-2.1c-0.9-0.5-1.5-1.9-1.8-3c-0.2-0.9,0.4-2,0.7-3.2c-1.4-0.6-2.8-1.1-4.4-1.7c-0.6,1.4-1.1,2.5-1.6,3.7
		c-0.7,2-1.2,4-2.2,5.8s-1.5,3.1,0.3,4.7c0.6,0.6,0.7,3,0.4,3.2c-1.3,0.7-2.9,0.7-4.4,1c-0.1-0.7-0.3-1.4-0.1-2
		c1.5-5,3.2-10.1,4.8-15.1c-0.3-0.1-0.7-0.2-1-0.3c-1.7,5-3.6,9.9-5.1,15c-0.5,1.8-0.8,2.3-2.9,2c-2.8-0.4-5.7-0.1-8.5-0.1
		c0,0.5-0.1,0.9-0.1,1.4c1.3,0.2,2.6,0.5,3.9,0.5c2.4-0.1,4.2,0.9,3.6,3.1c-0.1,0.3-0.1,0.7-0.2,1c-2,5-2.8,10.1-2.1,15.6
		c0.2,1.9-1,4-1.4,6.2c-1.8,0.3-4.1,0.3-5.8,0.9c-1.6,0.5-3.5,1.2-4.5,2.3c-5.8,6.3-9.8,13.8-11.7,22.2c-0.9,4.1,1,5,5,5.3
		c0.6,0,1.8-1.2,1.7-1.8c0-4,2-6.4,5.2-8.7c3.3-2.5,6.3-5.8,8.7-9.2c2.5-3.3,4.6-4.2,8.5-2.8c2,0.7,4.5,0.2,6.7,0.4
		c0.9,0.1,2,0.4,2.7,0.9c3.1,2.6,4.1,6.4,5.3,10c0.3,1,0.5,2.1,1.1,2.9c3.2,5.3,4.7,11.2,5.7,17.3c0.7,4.4,1.6,8.7,2.6,13
		c0.5,2.3,2.3,2.9,4.6,2c2.7-1.2,5.5-1.3,6.8,1.9c-0.8-0.5-1.2-1-1.6-0.9c-0.9,0.1-2.2,0.2-2.5,0.8c-2,4-3.8,8.2-5.7,12.3
		c-1.2,2.7-2.5,5.4-3.6,8.1c-0.4,1-0.3,2.3-0.1,3.6c5.4-5.9,7.3-13.7,11.8-20.6c1.6,1.7,3,3.3,4.6,4.9c3,3.1,5.9,6.4,9.2,9.2
		c3.6,3,5.2,7.1,7.4,11c0.3,0.5,0.1,1.6-0.3,2.2c-1.4,2.8-2.9,5.6-4.4,8.3c-2.4,4.4-4.9,8.8-7.3,13.3c-0.4,0.8-0.5,1.7-0.7,2.6
		c0.2,0.2,0.4,0.3,0.6,0.5c1.5-1.1,3-2.2,4.5-3.3c-0.2,1.4-0.5,2.8-0.7,4.2c1.2-0.2,2.4-0.4,3.9-0.6c11.7,13.2,23.7,26.8,35.7,40.4
		c0.1,0.1,0.5,0,1.4,0.1c-0.7-1.3-1.1-2.4-1.8-3.2c-9.7-11.6-19.4-23.1-29.2-34.6c-1.2-1.5-2.6-2.8-4-4.2c-0.8-0.8-2.3-1.3-1.3-2.9
		c1.1-1.6,1.8-3.9,4.4-3.5c2.4,0.3,4.6,0.8,5.4,3.9c0.5,2.1,2.1,3.8,2.9,5.8c0.6,1.6,0.5,3.4,0.8,5.1c0.1,0.7,0.3,1.5,0.7,2
		c12,14.3,24,28.6,36.1,42.9c4.1,4.9,6.1,9.1,9.4,14.7c6.1,10.6,9.5,18.3,12.8,27c60.9-40.9,100.9-110.4,100.9-189.3
		C444.6,270.1,342.6,168.1,216.7,168.1z M172.9,372.1c-0.8,4-1.1,4.7-4.9,2.9c-2.1-1-4.4-1.6-6.7-2.4c0-0.2,0-0.5,0-0.5H172.9z
		 M259,226.3c-1.3,6.3-1.7,6.3-7.8,4.6c-4-1.1-8.2-1.5-12.2-2.3c-1.7-0.3-3.4-0.9-5-1.6c-3.6-1.4-7.1-2.9-10.6-4.4
		c-0.6-0.3-1.3-1.6-1.3-1.6s4.1-6.9,7.8-6.8c2.6,0.5,8.8,1.9,8.8,1.9s9.1,2.3,13.6,3.7c2.2,0.7,4.2,2.1,6.2,3.4
		c0.4,0.3,0.6,1.1,0.7,1.7C259.3,225.4,259.1,225.9,259,226.3z M280.3,247.9c-0.3-0.1-0.5-0.2-0.5-0.2v-7.6c1,0.2,2.2,0.4,3.6,0.7
		C282.3,243.4,281.2,245.6,280.3,247.9z"/>
	<g id="XMLID_2577_">
		
			<linearGradient id="XMLID_11_" gradientUnits="userSpaceOnUse" x1="226.0773" y1="505.6305" x2="226.0773" y2="531.5305" gradientTransform="matrix(1 0 0 -1 0 794)">
			<stop  offset="0" style="stop-color:#FFFFFF;stop-opacity:0"/>
			<stop  offset="0.1" style="stop-color:#FFFFFF;stop-opacity:0"/>
			<stop  offset="0.5" style="stop-color:#FFFFFF"/>
			<stop  offset="0.9" style="stop-color:#FFFFFF;stop-opacity:0"/>
			<stop  offset="1" style="stop-color:#FFFFFF;stop-opacity:0"/>
		</linearGradient>
		<path id="XMLID_2578_" class="st10" d="M241.8,286.8c-0.2,0.4-0.4,0.8-0.6,1.1c-0.1,0.2-0.2,0.3-0.3,0.5c0.1-0.2,0.2-0.3,0.3-0.5
			C241.5,287.6,241.6,287.2,241.8,286.8l0.3-0.6L241.8,286.8z M233.8,262.6L233.8,262.6L233.8,262.6
			C233.8,262.7,233.8,262.7,233.8,262.6v0.1l0,0C233.8,262.7,233.8,262.7,233.8,262.6L233.8,262.6h-0.2l-0.3-0.1l0.3,0.1H233.8v0.2
			v0.1l0,0V262.6L233.8,262.6z M212.4,266.1c-0.3,0-0.5,0.7-0.8,1c-0.5,0.5-1,1.4-1.5,2l-0.1,0.2v0.1l0,0v-0.1l0.1-0.1
			c0.5-0.7,0.9-1.6,1.5-2.1C211.9,266.8,212.2,266.1,212.4,266.1L212.4,266.1z M212.4,266.1c-0.3,0-0.5,0.7-0.8,1
			c-0.5,0.5-1,1.4-1.5,2l-0.1,0.2v0.1l0,0v-0.1l0.1-0.1c0.5-0.7,0.9-1.6,1.5-2.1C211.9,266.8,212.2,266.1,212.4,266.1L212.4,266.1z
			 M233.8,262.6L233.8,262.6L233.8,262.6h-0.2l-0.3-0.1l0.3,0.1H233.8v0.2v0.1l0,0V262.6L233.8,262.6z M241.8,286.8
			c-0.2,0.4-0.4,0.8-0.6,1.1c-0.1,0.2-0.2,0.3-0.3,0.5c0.1-0.2,0.2-0.3,0.3-0.5C241.5,287.6,241.6,287.2,241.8,286.8l0.3-0.6
			L241.8,286.8z M233.8,262.7L233.8,262.7L233.8,262.7l-0.2-0.1l-0.3-0.1l0.3,0.1L233.8,262.7L233.8,262.7L233.8,262.7L233.8,262.7
			L233.8,262.7L233.8,262.7z"/>
	</g>
</g>
</svg>
