<?xml version="1.0" encoding="utf-8"?>
<!-- Generator: Adobe Illustrator 19.0.0, SVG Export Plug-In . SVG Version: 6.00 Build 0)  -->
<svg version="1.1" id="Layer_1" xmlns="http://www.w3.org/2000/svg" xmlns:xlink="http://www.w3.org/1999/xlink" x="0px" y="0px"
	 viewBox="0 0 377 370.9" style="enable-background:new 0 0 377 370.9;" xml:space="preserve">
<style type="text/css">
	.st0{fill:#FFFFFF;}
</style>
<path id="XMLID_14_" class="st0" d="M190,20.9c-90.9,0-164.5,73.7-164.5,164.5C25.5,276.3,99.1,350,190,350
	c90.9,0,164.5-73.7,164.5-164.5C354.5,94.6,280.9,20.9,190,20.9z M282,115.4c-1.3,1-2.4,2-3.6,3c-21.3,17.8-42.6,35.5-63.9,53.2
	c-6.9,5.8-13.8,11.6-20.7,17.4c-3.3,2.8-4.3,2.8-7.6,0c-24.1-20.2-48.3-40.5-72.4-60.7c-4.8-4-9.6-7.9-14.4-12
	c-0.3-0.3-0.5,0.1-1-0.9H282z M83.9,126.3c23,19.7,47,39.2,70.5,58.8c-23.5,19.6-47.5,39-70.5,58.8V126.3z M97,256.4
	c23.9-20,47.5-39.9,71.1-59.6c7.4,6.1,14.6,12.1,22,18.2c7.3-6.1,14.6-12,22-18.1c23.6,19.7,47.2,39.5,71.1,59.5H97z M295.9,243.8
	c-23-19.6-46.8-39-70.4-58.7c23.6-19.6,47.4-39,70.4-58.6V243.8z"/>
</svg>
