<?xml version="1.0" encoding="utf-8"?>
<!-- Generator: Adobe Illustrator 19.0.0, SVG Export Plug-In . SVG Version: 6.00 Build 0)  -->
<svg version="1.1" id="Layer_1" xmlns="http://www.w3.org/2000/svg" xmlns:xlink="http://www.w3.org/1999/xlink" x="0px" y="0px"
	 viewBox="0 0 377 370.9" style="enable-background:new 0 0 377 370.9;" xml:space="preserve">
<style type="text/css">
	.st0{fill:#FFFFFF;}
</style>
<path id="XMLID_16_" class="st0" d="M189.7,21.1c-90.9,0-164.5,73.7-164.5,164.5c0,90.9,73.7,164.5,164.5,164.5
	c90.9,0,164.5-73.7,164.5-164.5C354.2,94.8,280.5,21.1,189.7,21.1z M242.6,110.6c0.1,3.5-1.4,4.6-4.7,4.6c-6-0.1-11.9-0.1-17.9,0
	c-11.1,0.3-15.9,5.2-16.2,16.3c-0.2,6.8,0,13.7-0.3,20.5c-0.2,3.9,1.3,5.2,5.1,5.1c8.8-0.2,17.5-0.1,26.3,0c1.9,0,3.8,0.2,6.2,0.3
	c-1.5,12.2-2.7,23.8-4.5,35.4c-0.2,1.3-3.2,3-4.9,3.1c-7.2,0.4-14.4,0.4-21.6,0.1c-5-0.3-6.7,1.3-6.6,6.5
	c0.2,27.4,0.1,54.8,0.1,82.1c0,7.6,0,7.6-7.9,7.6c-8.3,0-16.5,0-24.8,0c-7.6,0-7.6,0-7.6-7.4c0-27,0-54,0-81.1c0-8.2,0-8.2-8.4-8.2
	c-6.5,0-13-0.1-19.5,0c-3.7,0.1-4.9-1.4-4.9-5c0.1-9.5,0.2-19,0-28.4c-0.1-4,1.5-5.2,5.3-5.1c6.8,0.2,13.7,0.1,20.5,0
	c7.1,0,7,0,7.1-7.4c0.2-9.5,0.1-19,0.8-28.4c1.7-24,18.4-40.8,42.5-42.1c10.3-0.5,20.7,0.4,31,0.7c3.1,0.1,4.7,1.3,4.6,4.8
	C242.4,93.4,242.4,102,242.6,110.6z"/>
</svg>
