<?xml version="1.0" encoding="utf-8"?>
<!-- Generator: Adobe Illustrator 19.0.0, SVG Export Plug-In . SVG Version: 6.00 Build 0)  -->
<svg version="1.1" id="Layer_1" xmlns="http://www.w3.org/2000/svg" xmlns:xlink="http://www.w3.org/1999/xlink" x="0px" y="0px"
	 viewBox="0 0 289.1 289.1" style="enable-background:new 0 0 289.1 289.1;" xml:space="preserve">
<g id="XMLID_2445_">
	<path id="XMLID_2599_" d="M119,177.7c0.2,1.6,0.1,3.2,0.1,5c-0.4-0.2-0.8-0.3-0.8-0.4c0-2.5-1.8-4.2-3-6.2
		C117,175.6,118.8,176.3,119,177.7z"/>
	<path id="XMLID_2598_" d="M121.3,170.3c-1.1-0.9-2-1.7-2.9-2.3c-1-0.7-2-1.3-3.4-1.1c-1.4,0.2-2.1-1-2.5-2.7
		c1.2,0.5,2.1,0.9,2.9,1.3c0.2,0.1,0.5,0.2,0.7,0.2c0.6,0,1.3-0.3,1.6,0c1.3,1,2.5,2.2,3.6,3.4C121.5,169.3,121.3,169.7,121.3,170.3
		z"/>
	<path id="XMLID_2597_" d="M112.8,151.2c-0.6-0.2-1.1-0.6-1.8-1.1c0.5-0.3,0.6-0.4,0.6-0.4c3.1,1.2,6.6,1.9,8.5,5.2
		c0.2,0.3,0.5,0.6,0.8,0.9c0.8,0.7,1.6,1.4,0.4,2.5c-0.2,0.2-0.2,0.7-0.4,1.3c-0.7-1.6-1.3-2.9-1.9-4.1
		C117.7,153,115.4,151.9,112.8,151.2z"/>
	<path id="XMLID_2596_" d="M121.4,161.5c0-0.7-0.3-1.5,0.2-2c0.2-0.2,0.7-0.2,0.9,0c0.4,0.4,0.4,1.8,0,2.1
		C122.3,161.9,121.4,161.6,121.4,161.5z"/>
	<path id="XMLID_2595_" d="M146.8,174.9c-4-2.6-7.9-5.1-11.8-7.7c0-0.2,0.1-0.3,0.1-0.5c1.5,0.4,3,0.8,4.7,1.2
		c0.1-0.9,0.2-1.8,0.2-2.6c0.1,0,0.2,0,0.3,0c0.2,0.3,0.4,0.7,0.4,1c0.1,2.1,1.2,3.3,2.9,4.3C145.5,171.6,146.2,173.2,146.8,174.9z"
		/>
	<path id="XMLID_2594_" d="M159.5,80.2l-0.2,0.3l-0.1-0.3l-0.2-0.1v0l0.3,0l0.1,0l0.1-0.1c0-0.1,0.1-0.2,0.2-0.3
		c0-0.1,0.1-0.2,0.1-0.3c0-0.1,0.1-0.2,0.1-0.3c0-0.1,0.1-0.2,0.1-0.3c0.3-0.9,0.3-1.8,0.4-2.8c0-0.2,0-0.5,0-0.7
		c0-0.2-0.1-0.5-0.1-0.7l0-0.4l-0.1-0.3c-0.1-0.2-0.1-0.5-0.2-0.7c-0.3-0.9-0.7-1.8-1.1-2.6l-0.4-0.6c-0.1-0.2-0.3-0.4-0.4-0.6
		l-0.2-0.3c-0.1-0.1-0.2-0.2-0.2-0.3c-0.2-0.2-0.3-0.4-0.5-0.5c-0.2-0.2-0.4-0.3-0.5-0.5l-0.1-0.1l-0.1-0.1l-0.3-0.2l-0.3-0.2
		c0,0-0.1-0.1-0.2-0.1l-0.2-0.1l-0.7-0.1l0,0.3h0c0,0,0,0,0,0l0,0h0c0,0,0-0.3,0-0.3l0,0.1l0,0.1h0l0,0l0,0h0l0-0.3l-0.1-0.2
		l-0.2-0.1l-0.3-0.2c-0.2-0.1-0.4-0.2-0.7-0.3c-0.5-0.2-0.9-0.3-1.4-0.4c-0.2-0.1-0.5-0.1-0.7-0.1c-0.1,0-0.2,0-0.4-0.1l-0.4,0
		c-0.2,0-0.5,0-0.7,0l-0.7,0c-1,0.1-1.9,0.3-2.8,0.6c-0.2,0.1-0.4,0.2-0.7,0.3l-0.3,0.1l-0.3,0.2c-0.2,0.1-0.4,0.2-0.6,0.3
		c-0.2,0.1-0.4,0.3-0.6,0.4c-0.2,0.1-0.4,0.3-0.6,0.4c-0.2,0.1-0.4,0.2-0.5,0.4c-0.2,0.2-0.3,0.4-0.5,0.4c-0.2,0.3-0.3,0.4-0.4,0.6
		c-0.3,0.3-0.6,0.8-0.9,1.2l0,0.1l0,0l0.1,0l0.2,0v0l-0.2,0l-0.2,0.1l-0.2,0.3c-0.1,0.2-0.3,0.4-0.3,0.6c-0.8,1.6-1.1,3.4-1,5
		c0,0.4,0.1,0.8,0.1,1.2c0.2,1.2,0.6,2.2,1,3.1c0,0.1,0.1,0.2,0.1,0.2c0.1,0.1,0.2,0.3,0.2,0.4s0.2,0.3,0.3,0.4
		c0.2,0.3,0.4,0.5,0.5,0.7c0.1,0.1,0.2,0.2,0.3,0.3c0.2,0.3,0.5,0.5,0.7,0.7c0.2,0.2,0.3,0.3,0.5,0.5c0.2,0.1,0.3,0.3,0.5,0.4
		c0.2,0.1,0.3,0.2,0.4,0.3c0.1,0.1,0.3,0.2,0.4,0.2c0.3,0.2,0.5,0.3,0.6,0.3c-0.1-0.1-0.3-0.2-0.6-0.3c-0.1,0-0.1-0.1-0.2-0.1
		c0,0,0,0,0,0c-0.1,0-0.1-0.1-0.2-0.1c0,0,0,0,0,0c0,0,0,0-0.1-0.1c-0.1-0.1-0.2-0.2-0.4-0.3c0,0-0.1-0.1-0.1-0.1c0,0,0,0,0,0
		c-0.1-0.1-0.2-0.2-0.3-0.3c-0.2-0.1-0.3-0.3-0.5-0.5c-0.7-0.7-1.6-1.5-2.3-2.7c-0.7-1.2-1.3-2.6-1.6-4.3c-0.3-1.7-0.2-3.6,0.4-5.6
		c0.1-0.2,0.2-0.5,0.3-0.7l0.1-0.4l0.1-0.2l0.1-0.2c0.2-0.4,0.4-0.9,0.7-1.4c0.2-0.2,0.3-0.5,0.5-0.7c0.2-0.2,0.3-0.4,0.5-0.7
		c0.2-0.2,0.4-0.4,0.6-0.6l0.3-0.3c0.1-0.1,0.2-0.2,0.3-0.3c0.8-0.8,1.8-1.4,2.9-1.9c0.3-0.1,0.6-0.2,0.8-0.4
		c0.3-0.1,0.6-0.2,0.9-0.3l0.4-0.1c0.1,0,0.3-0.1,0.4-0.1c0.3-0.1,0.6-0.1,0.9-0.2c1.2-0.2,2.5-0.1,3.7,0l0.9,0.2l0.2,0.1l0.2,0.1
		l0.5,0.2c0.3,0.1,0.6,0.2,0.9,0.3l0.4,0.2l0.2,0.1l0.1,0l0.1,0l0,0c0,0,0,0,0,0c0,0,0,0,0.1,0l0.7,0.4l0.2,0.1
		c0.1,0,0.1,0.1,0.2,0.1l0.4,0.3l0.4,0.3l0.2,0.2l0.2,0.2c0.2,0.2,0.5,0.4,0.7,0.6c0.9,0.9,1.6,1.9,2.2,3c0.1,0.3,0.3,0.6,0.4,0.8
		c0.1,0.1,0.1,0.3,0.2,0.4l0.1,0.4c0.1,0.3,0.2,0.6,0.3,0.9c0.1,0.3,0.1,0.6,0.2,0.9c0.2,1.2,0.2,2.4,0.1,3.5
		c-0.2,1.1-0.4,2.2-0.9,3.2c-0.2,0.5-0.5,1-0.7,1.4l-0.1,0.2l-0.1,0.2l-0.2,0.3c-0.1,0.2-0.3,0.4-0.4,0.6c-0.2,0.2-0.3,0.4-0.5,0.6
		c-0.1,0.1-0.2,0.2-0.2,0.3l-0.3,0.3c-0.2,0.2-0.3,0.3-0.5,0.5c-0.2,0.2-0.4,0.3-0.6,0.4c-0.4,0.3-0.8,0.5-1.1,0.8
		c-0.2,0.1-0.4,0.2-0.6,0.3c-0.2,0.1-0.4,0.2-0.6,0.3c-1.6,0.7-3.1,1.1-4.5,1.2c-1.4,0.1-2.6-0.1-3.5-0.3c-0.2-0.1-0.5-0.1-0.7-0.2
		c-0.1,0-0.2-0.1-0.3-0.1c0,0-0.1,0-0.1,0c0,0-0.1,0-0.1,0c-0.1,0-0.3-0.1-0.4-0.1c-0.1,0-0.2-0.1-0.2-0.1c0,0,0,0,0,0
		c-0.1,0-0.1-0.1-0.2-0.1c-0.3-0.1-0.5-0.2-0.6-0.3c0.1,0.1,0.3,0.1,0.6,0.3c0.1,0.1,0.2,0.1,0.4,0.2c0.2,0.1,0.3,0.1,0.5,0.2
		c0.2,0.1,0.4,0.1,0.6,0.2c0.2,0,0.4,0.1,0.7,0.1c1,0.2,2.1,0.3,3.5,0.1c1.3-0.2,2.8-0.7,4.2-1.5c0.7-0.4,1.4-1,1.9-1.6
		c0.1-0.2,0.3-0.3,0.4-0.5c0.1-0.2,0.3-0.3,0.4-0.5l0.2-0.3c0.1-0.1,0.1-0.2,0.2-0.3c0.1-0.1,0.1-0.2,0.2-0.3
		c0.1-0.1,0.1-0.2,0.2-0.3c0.1-0.2,0.2-0.4,0.3-0.6L159.5,80.2z"/>
	<path id="XMLID_2593_" d="M160,171.9c-0.8,1.7-1.7,3.4-2.7,5c-0.2,0.4-0.9,0.5-1.4,0.8c0.5-3.1,1.8-5.5,3.7-7.5
		c0.2,0.1,0.3,0.1,0.5,0.2C160.2,170.9,160.2,171.4,160,171.9z"/>
	<path id="XMLID_2592_" d="M199.2,264c0.8,0.5,1.8,0.8,2.7,1.2c-2.6,1.3-5.3,2.4-8.1,3.5c-1.9-4.8-4.2-9.5-6.3-14.2
		c-1-2.3-2-4.5-2.9-6.8c-0.3-0.8-0.5-1.8-0.6-2.7c-0.2-1.1-0.4-2.2-0.6-3.3c-0.1-0.4-0.2-0.7-0.4-1.1c0.1-0.1,0.3-0.1,0.4-0.2
		c1.1,2.7,2.2,5.5,3.4,8.2c0.4,0.9,0.9,1.7,1.5,2.4c1.4,1.9,3,3.6,4.2,5.5c0.9,1.5,1.8,2.9,3.3,3.9c0.7,0.5,1.3,1.2,1.9,1.8
		C198.2,262.9,198.6,263.7,199.2,264z"/>
	<path id="XMLID_2586_" d="M144.6,11C70.9,11,11.1,70.8,11.1,144.5c0,73.8,59.8,133.5,133.5,133.5c5.6,0,11.1-0.3,16.4-1
		c-0.4-0.9-0.7-1.9-1-2.8c-0.8-2.3-1.4-4.6-2-6.9c-0.2-0.7-0.3-1.4-0.5-2.1c-1-2.7-1.5-5.3-1.4-7.4c0.2-2.9-0.4-5.8-0.8-8.6
		c-0.5-4-1.1-7.9-1.5-11.9c-0.2-2.1-0.3-4.1-0.4-6.2c-0.1,0-0.3-0.1-0.4-0.1c-0.7,1.8-1.5,3.5-2.1,5.3c-0.4,1.4-1.2,1.8-2.5,1.4
		c-1.9-0.7-3.8-1.4-5.7-2.1c-1.1-0.4-3.4-1.4-3.4-1.4l-1.3-5.5c0,0,5.2-6.8,6.6-10.8c0.7-2,1.6-4.4,0.1-6.7
		c-0.3-0.4-0.8-0.7-1.3-0.7c-1.3,0-2.1-0.6-2.6-1.8c-1.5-3.5-2.9-7.1-4.3-10.6c-0.6-1.5,0-2.9,0.7-4.1c0.6-1,0.4-1.5-0.6-2
		c-1-0.5-2-1.2-3-1.8c-1.3-0.8-2.2-0.6-2.8,0.8c-0.5,1.2-0.8,2.5-1.2,3.8c-0.3,1-0.7,2-1.4,2.9c-0.8-2.1,2.3-3.7,0.3-6.1
		c-0.4,1.2-0.9,2-1.1,3c-0.4,2-1,2.6-3,2.8c-0.5,0.1-1,0.2-1.6,0.4c1.5,1.8,2.7,0.2,4.1,0.1c-2.6,2.1-0.5,5.2-2,7.5
		c-0.1-1.1-0.3-2.2-0.4-3.2c-0.1,0-0.1,0-0.2,0c-0.1,0.3-0.2,0.7-0.3,1c-0.3,3.6-0.7,7.1-1,10.7c-0.3,3.5-0.6,7-0.9,10.5
		c0,0.3-0.1,0.5-0.2,0.7c-0.4,1.1-0.8,2.2-1.2,3.3c-0.7,1.5-2.1,0-3.2,0.7c0,0.3,0.1,0.7,0.1,1.3c-0.5,0-1-0.1-1.6-0.1
		c0,0.1-0.1,0.2-0.1,0.3c0.7,0.3,1.4,0.6,2,1c0.9,0.5,1.7,1.1,2.5,1.8c0.2,0.2,0.1,0.7,0,1.1c-0.1,1.5-0.3,4.5-0.3,4.5l-2.6,4.1
		l-1.4,1.2c0,0-0.9,2.8-1.3,3.8h-4.7c0.7,2,1.8,3,3.8,3c-0.7,1.8-1.4,3.6-2,5.4c-3.1-0.8-6.1-1.4-8.9-2.4c-1.7-0.6-4.8-2.4-4.8-2.4
		l-0.5-3c0,0,2.6-3.4,2.7-5.7c0-0.4,0-0.7,0.2-1c0.9-1.8-1.3-4-1.3-4l-0.5-2.1l3.3-8.7l2.1-1.6l1.4-1.3c0,0,1.4-6.9,1.7-10.4
		c0.4-5.1,0.7-10.2,1.1-15.3c0.1-1.4,0.3-2.7-0.8-3.8c-0.3-0.3-0.2-1.1-0.2-1.6c0.5-2.8,1.1-5.6,1.5-8.4c0.1-0.6-0.1-1.4-0.4-2
		c-0.9-2.1-3.5-4-2.9-6.1c0.2-0.8,1.1-0.7,1.4-1.1c0.2-0.3,0.3-1,0.1-1.2c-1.8-1.4-1.9-3.3-1.9-5.4c0-2.2,0.8-3.8,2.2-5.4
		c0,0,0-0.1-0.3,0c-0.5-1.2-1-2.3-1.4-3.5c-0.4-1.4-0.5-2.9-0.8-4.4c-0.5-3.1,0.1-4.1,3.1-4.8c0.3-0.1,0.7,0,0.9-0.2
		c0.6-0.4,1.5-0.8,1.6-1.3c0.1-1-1-1.5-1.8-2c-1.6-1.2-1.7-0.4-2.4-2.3c-0.9-2.3-1-4.2-1.1-6.7c-0.1-1.4,0.6-2.8,1.1-4.2
		c0.1-0.2,0.6-0.4,0.9-0.4c3.4,0.3,6.9,0.5,10.3,1c0.8,0.1,1.5,0.9,2.2,1.5c1.4,1.3,3,2.5,4.2,3.9c1.1,1.2,1.2,3.1,2.9,4
		c0.3,0.2,0.1,1.1,0.2,1.7c0.1,0.4,0.3,0.8,0.4,1.1c0.3-0.3,0.9-0.5,1-0.8c0-1.9,0.2-3.8-0.1-5.6c-0.4-2.3-2.1-3.9-4-5
		c-2-1.2-3.3-2.7-4.2-4.7c0.3-0.6,0.5-1.3,1-1.8c0.5-0.6,1.1-1.4,1.7-1.4c1.5-0.1,1.7-0.9,1.9-2.1c0.4-3.1,0.9-6.2,1.4-9.3
		c-0.2-0.1-0.4-0.2-0.6-0.3c-1-0.6-2.4-1.1-2.2-2.4c0.2-1.4,0-3.3,2-3.9c0.2-0.1,0.4-0.3,0.5-0.5c0.8-2.7,1.6-5.4,2.5-8.2
		c-2.9-1.2-5.5-2.6-8.2-3.4c-5.7-1.6-17-5.4-17-5.4l-6.4-0.9L94,88.8c0,0-0.7-1-1.1-1.2c-1.2-0.5-3.8-1.2-3.8-1.2l-1.5-2.7
		c0,0,4.2-13.4,6.3-20c0.3-1,0.9-3.1,0.9-3.1l2.9-1.9c0,0,1.9,0.5,3,0.7c0.2-0.5,0.4-1.1,0.7-1.8c-1.3-0.6-3.7-1.8-3.7-1.8L96.6,53
		c0,0,2.1-4.7,3-7.2c1.5-4.3,4.3-13,4.3-13l4.2-1.8c0,0,2.6,1.1,3.2-0.9c0.1-0.2,0.3-0.3,0.9-0.8c-0.2,1.2-0.2,2.1-0.5,2.8
		c-1.6,5.1-3.3,10.1-4.8,15.2c-0.2,0.8,0,1.7-0.1,2.5c-0.1,0.8-0.2,1.6-0.4,2.4c-0.3,1.2-0.7,2.3-1,3.4c0.2,0.1,0.3,0.2,0.5,0.4
		c0.4-0.3,1.1-0.5,1.3-0.9c1.8-5,3.5-10,5.1-15.1c0.8-2.7,1.1-5.5,1.7-8.3c0.3-1.2,1-1.4,2.5-0.7c2.1,1,4.1,2.1,6.2,2.9
		c5.7,2.3,11.5,4.5,17.2,6.8c4.4,1.8,8.6,3.9,12.9,5.8c0.5,0.2,1,0.6,1.7,1c-0.5,0.1-0.8,0.2-1.2,0.3c3.1,1.8,6.1,3.2,9.5,3.8
		c3,0.5,6,1.3,8.9,1.9c0.6,0.1,1.3-0.1,2-0.1c0.4,0,0.9-0.2,1.3-0.1c1.1,0.2,2.3,0.7,3.4,0.9c0.9,0.2,1.3,0.6,1.2,1.5
		c-0.3,2.7-0.3,5.4-0.9,8c-1.2,4.9-2.7,9.7-4.1,14.6c-0.1,0.5-0.2,1-0.3,1.6c0.1,0.1,0.3,0.1,0.4,0.2c0.3-0.4,0.7-0.7,0.8-1.2
		c2.1-5.3,4.1-10.6,6.1-15.9c1.2-3.3,2-6.6,3.2-9.9c0.3-0.9,1.3-1.6,2.2-2.6c0.8,1.2,1.3,2,2,2.8c0.4,0.5,1,1,1.6,1.1
		c3.5,1.2,10.7,3.3,10.7,3.3l3.8,2.4c0,0,0.7,0.7,1.1,1.1c2.2,1.8,2.3,2.2,1.4,4.9c-1.2,3.4-2.4,6.9-3.5,10.3
		c-0.3,0.8-0.4,1.7,0.5,2.4c0.2,0.2,0.2,0.8,0.1,1.2c-0.5,1.6-0.9,3.3-1.7,4.8c-1.2,2.3-0.5,4.7-1,7c-0.3,1.5-0.8,3.1-0.9,4.6
		c-0.2,1.3,0,2.6,0,3.9c0.2,0,0.3,0,0.5,0c0.5-1.9,0.9-3.7,1.4-5.6c1.9-6.5,3.7-13.1,5.9-19.5c1.4-4.1,2.4-8.3,2.9-12.6
		c0.1-0.5,0.2-1,0.3-1.7c0.5,1.2-0.3,2.9,1.6,3c-0.5,2.3-0.1,2.9,2.7,3.8c-0.3,1.9-0.5,3.9-0.8,5.9c-0.3,2.5-0.7,5.1-1,7.6
		c-0.1,0.7-0.2,1.3-0.4,2c-2.8,8.7-5.6,17.3-8.4,26c-1.1,3.4-2.3,6.8-3.8,10c-1.3,2.6-3,4-5.7,1.3c-0.2-0.2-0.5-0.3-0.7-0.5
		c-1.7,2.5-1.9,2.6-5,1.9c-7.8-1.9-15.6-3.8-23.4-5.7c-2.1-0.5-2.6-1.3-2.5-3.4c0-0.3-0.2-0.6-0.3-0.9c-0.3,0.2-0.7,0.2-0.8,0.5
		c-1.1,1.7-2.3,2.2-4.2,1.6c-1.2-0.4-2.5-0.7-3.6-1.3c-0.5-0.3-0.9-1.1-1-1.8c-0.1-0.5,0.2-1.2,0.4-1.9c-0.8-0.3-1.6-0.6-2.6-1
		c-0.3,0.8-0.6,1.5-0.9,2.2c-0.4,1.1-0.7,2.4-1.3,3.4c-0.6,1-0.9,1.8,0.2,2.8c0.4,0.3,0.4,1.8,0.2,1.9c-0.7,0.4-1.7,0.4-2.6,0.6
		c0-0.4-0.2-0.8-0.1-1.2c0.9-3,1.9-5.9,2.8-8.8c-0.2-0.1-0.4-0.1-0.6-0.2c-1,2.9-2.1,5.8-3,8.8c-0.3,1-0.5,1.4-1.7,1.2
		c-1.6-0.3-3.3-0.1-5-0.1c0,0.3-0.1,0.5-0.1,0.8c0.8,0.1,1.5,0.3,2.3,0.3c1.4-0.1,2.5,0.5,2.1,1.8c-0.1,0.2,0,0.4-0.1,0.6
		c-1.2,2.9-1.6,5.9-1.2,9.1c0.1,1.1-0.6,2.3-0.8,3.6c-1.1,0.2-2.4,0.2-3.4,0.5c-0.9,0.3-2,0.7-2.7,1.4c-3.4,3.7-5.7,8.1-6.9,13
		c-0.5,2.4,0.6,2.9,2.9,3.1c0.3,0,1-0.7,1-1.1c0-2.4,1.2-3.7,3-5.1c2-1.5,3.7-3.4,5.1-5.4c1.4-2,2.7-2.4,5-1.6
		c1.2,0.4,2.6,0.1,3.9,0.2c0.5,0,1.2,0.2,1.6,0.6c1.8,1.5,2.4,3.7,3.1,5.9c0.2,0.6,0.3,1.2,0.6,1.7c1.9,3.1,2.7,6.6,3.3,10.1
		c0.4,2.6,1,5.1,1.5,7.6c0.3,1.4,1.3,1.7,2.7,1.2c1.6-0.7,3.2-0.7,4,1.1c-0.5-0.3-0.7-0.6-1-0.6c-0.5,0.1-1.3,0.1-1.4,0.5
		c-1.2,2.4-2.2,4.8-3.3,7.2c-0.7,1.6-1.5,3.1-2.1,4.8c-0.2,0.6-0.2,1.3,0,2.1c3.1-3.5,4.3-8,6.9-12.1c0.9,1,1.8,1.9,2.7,2.9
		c1.8,1.8,3.5,3.8,5.4,5.4c2.1,1.8,3.1,4.2,4.3,6.4c0.2,0.3,0,0.9-0.2,1.3c-0.8,1.6-1.7,3.3-2.6,4.9c-1.4,2.6-2.9,5.2-4.3,7.8
		c-0.2,0.5-0.3,1-0.4,1.5c0.1,0.1,0.2,0.2,0.4,0.3c0.9-0.7,1.8-1.3,2.7-1.9c-0.1,0.8-0.3,1.7-0.4,2.5c0.7-0.1,1.4-0.2,2.3-0.3
		c6.8,7.8,13.9,15.7,20.9,23.7c0.1,0.1,0.3,0,0.8,0.1c-0.4-0.8-0.7-1.4-1.1-1.9c-5.7-6.8-11.4-13.5-17.1-20.3
		c-0.7-0.9-1.5-1.7-2.3-2.4c-0.5-0.5-1.4-0.8-0.7-1.7c0.6-0.9,1.1-2.3,2.6-2.1c1.4,0.2,2.7,0.5,3.1,2.3c0.3,1.2,1.3,2.2,1.7,3.4
		c0.3,0.9,0.3,2,0.5,3c0.1,0.4,0.2,0.9,0.4,1.2c7,8.4,14.1,16.7,21.1,25.1c2.4,2.8,3.6,5.3,5.5,8.6c3.6,6.2,5.5,10.7,7.5,15.8
		c35.7-24,59.1-64.7,59.1-110.9C278.2,70.8,218.4,11,144.6,11z M119,131c-0.5,2-0.7,2.5-2.9,1.4c-1.2-0.6-2.6-0.8-3.9-1.3
		c0-0.1,0-0.2,0-0.2H119z M169.4,45.1c-0.8,3.7-1,3.7-4.6,2.7c-2.3-0.7-4.8-0.9-7.2-1.4c-1-0.2-2-0.5-2.9-0.9
		c-2.1-0.8-4.2-1.7-6.2-2.6c-0.3-0.1-0.8-0.9-0.8-0.9s2.4-4.1,4.6-4c1.5,0.3,5.2,1.1,5.2,1.1s5.4,1.3,8,2.2c1.3,0.4,2.4,1.2,3.6,2
		c0.3,0.2,0.4,0.7,0.4,1C169.6,44.6,169.5,44.9,169.4,45.1z M181.6,57.7c-0.2,0-0.5-0.1-0.5-0.1v-4.4c0,0.1,1.4,0.3,2.3,0.4
		C182.7,55.1,182.2,56.4,181.6,57.7z"/>
	<g id="XMLID_2577_">
		<path id="XMLID_2578_" d="M159.3,80.6c-0.1,0.2-0.2,0.5-0.3,0.6c-0.1,0.1-0.1,0.2-0.2,0.3c0.1-0.1,0.1-0.2,0.2-0.3
			C159.1,81,159.2,80.8,159.3,80.6l0.2-0.3L159.3,80.6z M154.6,66.4L154.6,66.4C154.6,66.4,154.6,66.4,154.6,66.4
			C154.6,66.4,154.6,66.4,154.6,66.4L154.6,66.4L154.6,66.4C154.6,66.4,154.6,66.4,154.6,66.4L154.6,66.4l-0.1,0l-0.2-0.1l0.2,0.1
			L154.6,66.4L154.6,66.4l0,0.1h0V66.4L154.6,66.4z M142.1,68.8c-0.2,0-0.3,0.2-0.4,0.4c-0.3,0.3-0.6,0.7-0.9,1.1l-0.1,0l0,0l0,0
			l0,0l0-0.1c0.3-0.4,0.6-0.7,0.9-1C141.8,69,141.9,68.8,142.1,68.8L142.1,68.8z M142.1,68.8c-0.2,0-0.3,0.2-0.4,0.4
			c-0.3,0.3-0.6,0.7-0.9,1.1l-0.1,0l0,0l0,0l0,0l0-0.1c0.3-0.4,0.6-0.7,0.9-1C141.8,69,141.9,68.8,142.1,68.8L142.1,68.8z
			 M154.6,66.4L154.6,66.4L154.6,66.4l-0.1,0l-0.2-0.1l0.2,0.1L154.6,66.4L154.6,66.4l0,0.1h0V66.4L154.6,66.4z M159.3,80.6
			c-0.1,0.2-0.2,0.5-0.3,0.6c-0.1,0.1-0.1,0.2-0.2,0.3c0.1-0.1,0.1-0.2,0.2-0.3C159.1,81,159.2,80.8,159.3,80.6l0.2-0.3L159.3,80.6z
			 M154.6,66.4C154.6,66.4,154.6,66.4,154.6,66.4L154.6,66.4l-0.1,0l-0.2-0.1l0.2,0.1L154.6,66.4L154.6,66.4
			C154.6,66.4,154.6,66.4,154.6,66.4L154.6,66.4L154.6,66.4C154.6,66.4,154.6,66.4,154.6,66.4z"/>
	</g>
</g>
</svg>
