<?xml version="1.0" encoding="utf-8"?>
<!-- Generator: Adobe Illustrator 19.0.0, SVG Export Plug-In . SVG Version: 6.00 Build 0)  -->
<svg version="1.1" id="Layer_1" xmlns="http://www.w3.org/2000/svg" xmlns:xlink="http://www.w3.org/1999/xlink" x="0px" y="0px"
	 viewBox="0 0 377 370.9" style="enable-background:new 0 0 377 370.9;" xml:space="preserve">
<style type="text/css">
	.st0{fill:#FFFFFF;}
</style>
<g id="XMLID_14_">
	<path id="XMLID_66_" class="st0" d="M223.9,185.8c0,18.5-15.1,34-33.3,34c-19.6,0-34.7-14.9-34.7-34.2c0-18.7,15.3-33.7,34.2-33.7
		C208.8,151.8,223.9,167.1,223.9,185.8z"/>
	<path id="XMLID_61_" class="st0" d="M273.5,185.9c0-10.4,0.2-20.7-0.1-31.1c-0.2-7-0.5-14.2-1.6-21.1c-2.3-13.5-9.6-23.5-23-27.9
		c-5.2-1.7-10.7-2.8-16.1-2.9c-22.9-0.5-45.8-0.7-68.8-0.7c-7.8,0-15.5,0.4-23.3,1.3c-17.9,1.9-29.8,12.9-32.6,30.7
		c-1.4,8.9-1.6,18.1-1.7,27.2c-0.3,16.3-0.2,32.5,0,48.8c0.1,8.3,0.4,16.6,1.3,24.9c1.8,17.7,13.1,30.1,30.6,32.7
		c8.8,1.3,17.8,1.6,26.8,1.7c16.6,0.3,33.3,0.2,49.9,0c8.1-0.1,16.2-0.5,24.2-1.3c7.8-0.8,15.1-3.5,21.2-8.8
		c8.5-7.4,11.9-17.3,12.4-28.1c0.8-15.1,0.9-30.3,1.3-45.4C273.9,185.9,273.7,185.9,273.5,185.9z M189.7,238.3
		c-28.8,0-52.3-23.7-52.3-52.7c0.1-29.1,23.7-52.6,52.7-52.5c29,0.2,52.5,23.7,52.4,52.5C242.4,215,219,238.3,189.7,238.3z
		 M244.4,143.5c-6.8,0-12.2-5.4-12.2-12.3c0-6.8,5.4-12.3,12.2-12.3c6.9,0,12.4,5.5,12.4,12.4C256.8,138.2,251.3,143.5,244.4,143.5z
		"/>
	<path id="XMLID_15_" class="st0" d="M190.1,21.3c-90.9,0-164.5,73.7-164.5,164.5c0,90.9,73.7,164.5,164.5,164.5
		c90.9,0,164.5-73.7,164.5-164.5C354.6,94.9,281,21.3,190.1,21.3z M291.2,232.2c-0.9,15.6-6,29.6-17.9,40.5
		c-9.2,8.4-20.2,12.7-32.3,14c-9.6,1-19.3,1.3-28.9,1.4c-18,0.2-36,0.2-53.9-0.2c-8.8-0.2-17.7-0.6-26.2-2.5
		c-24.5-5.4-39.9-22.9-42.7-48c-1.1-10-1.4-20-1.5-30.1c-0.2-17.8-0.1-35.7,0.2-53.5c0.1-9.9,0.4-19.8,3.2-29.4
		c6.6-22,21.6-35,44-38.7c10.9-1.8,22-1.9,33.1-2c17.8-0.3,35.6-0.1,53.5,0.1c10.3,0.1,20.6,0.4,30.5,3.5
		c21.6,6.8,34.3,21.7,37.8,43.7c1.8,11.1,1.7,22.5,2.1,33.8c0.3,7.8,0.1,15.5,0.1,23.3c0.1,0,0.2,0,0.3,0
		C292.1,202.8,292,217.5,291.2,232.2z"/>
</g>
</svg>
