<?xml version="1.0" encoding="utf-8"?>
<!-- Generator: Adobe Illustrator 19.0.0, SVG Export Plug-In . SVG Version: 6.00 Build 0)  -->
<svg version="1.1" id="Layer_1" xmlns="http://www.w3.org/2000/svg" xmlns:xlink="http://www.w3.org/1999/xlink" x="0px" y="0px"
	 viewBox="0 0 1746 231" style="enable-background:new 0 0 1746 231;" xml:space="preserve">
<style type="text/css">
	.st0{fill:#FFFFFF;}
</style>
<g id="XMLID_2535_">
	<path id="XMLID_2575_" class="st0" d="M266.9,44.4h35.4L253.9,193h-33.5L266.9,44.4z"/>
	<path id="XMLID_2572_" class="st0" d="M427.7,124.9c-6.3-6.5-14.7-10.4-25.7-11.7v-0.4c10-2.3,15.7-6.5,21.1-12.5
		c5.4-6,8.3-13,8.3-21c0-11.1-4.4-19.8-13.3-25.9c-8.9-6.1-21.6-9.3-38.2-9.3h-15v25h6.9c16.3,0,24.5,5.5,24.5,16.4
		c0,5.9-2,10.4-6,13.7c-4,3.4-9.4,4.9-16.3,4.9H365v25h12.7c7.7,0,13.8,1.8,18.1,5.2c4.3,3.4,6.5,8.1,6.5,14c0,6.2-2.2,11-6.6,14.6
		c-4.4,3.6-10.5,5.2-18.2,5.2H365v25h18c16.9,0,30.2-4,39.9-12c9.7-8,14.4-18.8,14.4-32.4C437.3,139.3,434,131.4,427.7,124.9z
		 M321,44v149h34V44H321z"/>
	<path id="XMLID_2567_" class="st0" d="M500,44v27h46V44H500z M500,166v27h48v-27H500z M541,105h-41v27h41V105z M456,193h34V44h-34
		V193z"/>
	<path id="XMLID_2564_" class="st0" d="M668.8,149.1c-1.5-2.3-3.1-4.6-4.8-7c-1.8-2.4-3.6-4.6-5.5-6.7c-1.9-2.1-3.9-3.9-6-5.4
		c-2.1-1.6-3.4-2.7-6.4-3.4v-0.4c5-1.5,9.6-3.5,13.7-6c4.1-2.6,7.6-5.6,10.5-9.1c2.9-3.5,5.1-7.5,6.7-11.9c1.6-4.4,2.4-9.4,2.4-14.5
		c0-26.9-18-40.6-54.1-40.6H612v26h8.8c15.6,0,23.3,6.2,23.3,19.2c0,6.2-2.2,11.4-6.6,15.6c-4.4,4.2-10.1,6.2-17.3,6.2H612v25h2.7
		c2.1,0,4,0.5,5.8,1.3c1.8,0.9,3.5,2.1,5.1,3.8s3.2,3.6,4.8,5.9c1.6,2.3,3.2,4.9,5,7.8l23.1,38.3h38.5L668.8,149.1z M569,193h33V44
		h-33V193z"/>
	<path id="XMLID_2559_" class="st0" d="M1501,44v27h47V44H1501z M1501,166v27h49v-27H1501z M1544,105h-43v26h43V105z M1458,193h33
		V44h-33V193z"/>
	<path id="XMLID_2556_" class="st0" d="M1670.9,148.6c-1.5-2.3-3.1-4.8-4.8-7.2c-1.8-2.4-3.6-4.7-5.5-6.8c-1.9-2.1-4-3.9-6.1-5.5
		c-2.1-1.6-4.5-2.7-6.5-3.4v-0.4c6-1.5,9.7-3.5,13.8-6c4.1-2.6,7.7-5.6,10.6-9.1c2.9-3.5,5.2-7.5,6.8-11.9c1.6-4.4,2.4-8.9,2.4-14.1
		c0-26.9-18-40.1-54.1-40.1H1615v25h8c15.6,0,23.3,6.2,23.3,19.2c0,6.2-2.2,11.4-6.6,15.6c-4.4,4.2-10.1,6.2-17.3,6.2h-7.3v25h1.8
		c2.1,0,4,0.5,5.8,1.4c1.8,0.9,3.5,2.1,5.1,3.8c1.6,1.6,3.2,3.6,4.8,5.9c1.6,2.3,3.2,5.4,5,8.3l23.1,38.7h38.5L1670.9,148.6z
		 M1572,193h32V44h-32V193z"/>
	<polygon id="XMLID_2555_" class="st0" points="226.1,143.6 177.5,44.4 215.7,44.4 239.7,99.8 	"/>
	<g id="XMLID_2551_">
		<path id="XMLID_2553_" class="st0" d="M162.4,186.8c-10.8,5.3-25,7.9-42.5,7.9c-22.8,0-40.7-6.7-53.8-20.1
			c-13.1-13.4-19.6-31.3-19.6-53.6c0-23.8,7.3-43,22-57.8C83.2,48.4,102.3,41,125.7,41c14.5,0,26.7,1.8,36.7,5.5v32.2
			c-10-5.9-21.3-8.9-34-8.9c-14,0-25.2,4.4-33.8,13.2c-8.6,8.8-12.9,20.7-12.9,35.7c0,14.4,4,25.8,12.1,34.4
			c8.1,8.5,19,12.8,32.6,12.8L162.4,186.8z"/>
		<circle id="XMLID_2552_" class="st0" cx="131.6" cy="117.9" r="30.9"/>
	</g>
	<path id="XMLID_2548_" class="st0" d="M1385.6,44L1351,95.8v57.6l49.8-81.4h0.8c-0.8,11-1.6,21.9-1.6,31.5V193h34V44H1385.6z
		 M1261,44v149h30v-82.8c0-11.1-0.4-24.2-1.3-38.2h0.9l50.4,81.5V95.4L1309.9,44H1261z"/>
	<path id="XMLID_2545_" class="st0" d="M853,44v59h-27.4l8.6,15.4l-8.6,13.6H853v61h34V44H853z M790,44h-34v149h34v-61h24.2
		l8.6-13.7l-8.6-15.3H790V44z"/>
	<path id="XMLID_2542_" class="st0" d="M1190.5,44L1156,95.8v57.6l49.7-81.4h0.8c-0.8,11-1.5,21.9-1.5,31.5V193h33V44H1190.5z
		 M1065,44v149h30v-82.8c0-11.1-0.1-24.2-1-38.2h0.9l51.1,81.5V95.4L1114.2,44H1065z"/>
	<g id="XMLID_2538_">
		<path id="XMLID_2540_" class="st0" d="M1002.5,159.2l10.6,33.8h36.5L996.7,44H957l-54.1,149h36.3l10.5-33.8l7.1-25.1L975.5,70h0.8
			l18.7,64.1L1002.5,159.2z"/>
		<polygon id="XMLID_2539_" class="st0" points="954.5,159 975.7,192.6 997.5,159 		"/>
	</g>
</g>
</svg>
