<?xml version="1.0" encoding="utf-8"?>
<!-- Generator: Adobe Illustrator 19.0.0, SVG Export Plug-In . SVG Version: 6.00 Build 0)  -->
<svg version="1.1" id="Layer_1" xmlns="http://www.w3.org/2000/svg" xmlns:xlink="http://www.w3.org/1999/xlink" x="0px" y="0px"
	 viewBox="0 0 377 370.9" style="enable-background:new 0 0 377 370.9;" xml:space="preserve">
<style type="text/css">
	.st0{fill:#FFFFFF;}
</style>
<path id="XMLID_56_" class="st0" d="M189.7,21.1c-90.9,0-164.5,73.7-164.5,164.5c0,90.9,73.7,164.5,164.5,164.5
	c90.9,0,164.5-73.7,164.5-164.5C354.2,94.8,280.5,21.1,189.7,21.1z M303.2,115.8c-2.8,4.1-6,8-9.4,11.6c-3.9,4.1-8,7.8-12.6,11.1
	c-0.6,0.4-0.8,0.9-0.7,1.6c0.4,5.6,0.1,11.1-0.4,16.6c-0.9,10.4-3.1,20.5-6.4,30.3c-4,12-9.4,23.2-16.4,33.7
	c-3.7,5.6-7.9,10.9-12.4,15.9c-8.5,9.3-18,17.2-28.8,23.7c-6.3,3.8-12.9,7-19.8,9.6c-9.5,3.6-19.3,6.1-29.3,7.4
	c-4.4,0.6-8.9,0.9-13.4,1.1c-3.3,0.2-6.5,0.2-9.8,0.2c-8.7-0.2-17.3-1.3-25.9-3.2c-8.8-2-17.4-4.9-25.6-8.7
	c-5.4-2.5-10.6-5.3-15.7-8.4c-0.3-0.2-0.6-0.4-0.8-0.6c0-0.1,0-0.1,0-0.2c25.4,2.5,48.3-3.8,68.7-19.3c-9.9-0.5-18.9-3.5-26.8-9.5
	c-7.9-6-13.4-13.6-16.6-23.3c7.1,1.3,13.8,1.1,20.8-0.7c-15.7-4-26.8-13-33.4-27.6c-3-6.7-4.2-16.5-3.5-19
	c6.4,3.4,13.1,5.4,20.4,5.6c-13.4-10.1-20.4-23.4-20.2-40.2c0.1-7.9,2.3-15.3,6.3-22.2c25.3,29.9,57.3,46.3,96.5,49
	c-0.2-1.3-0.4-2.4-0.6-3.5c-1.2-8.3-0.4-16.4,2.6-24.2c2.4-6.4,6.1-11.9,11-16.6c5-4.9,10.9-8.5,17.5-10.8
	c5.6-1.9,11.4-2.8,17.3-2.5c9.9,0.5,18.8,3.6,26.6,9.7c1.7,1.3,3.3,2.9,4.9,4.4c0.5,0.5,1,0.7,1.8,0.5c9.5-2,18.4-5.3,26.8-10.1
	c0.6-0.3,1.2-0.6,1.8-0.9c-3.5,10.9-10.2,19.3-19.8,25.5c9-1,17.6-3.4,25.8-7c0,0.1,0.1,0.1,0.1,0.2
	C303.5,115.3,303.4,115.6,303.2,115.8z"/>
</svg>
