<?xml version="1.0" encoding="utf-8"?>
<!-- Generator: Adobe Illustrator 19.0.0, SVG Export Plug-In . SVG Version: 6.00 Build 0)  -->
<svg version="1.1" id="Layer_1" xmlns="http://www.w3.org/2000/svg" xmlns:xlink="http://www.w3.org/1999/xlink" x="0px" y="0px"
	 viewBox="0 0 377 370.9" style="enable-background:new 0 0 377 370.9;" xml:space="preserve">
<style type="text/css">
	.st0{fill:#FFFFFF;}
</style>
<g id="XMLID_56_">
	<path id="XMLID_68_" class="st0" d="M166.9,153c20,10.8,40.4,21.5,60.8,32.3c-20.4,10.8-40.8,21.4-60.8,32.2V153z"/>
	<path id="XMLID_57_" class="st0" d="M190,20.8c-90.9,0-164.5,73.7-164.5,164.5c0,90.9,73.7,164.5,164.5,164.5
		c90.9,0,164.5-73.7,164.5-164.5C354.5,94.5,280.9,20.8,190,20.8z M306.3,200.3c-0.6,11.8-1.3,23.5-4.1,35
		c-2.9,11.9-12.2,19.9-25.4,21.4c-10.8,1.2-21.6,2-32.5,2.5c-17,0.7-34,0.9-52.7,1.4c-17.9-0.4-37.4-0.7-57-1.4
		c-10.3-0.4-20.6-1.3-30.8-2.4C89.1,255,79.6,246.2,77,232.8c-3-15.8-3.6-31.8-3.7-47.9c0-13.3,0.6-26.5,2.5-39.7
		c0.6-4.5,1.3-9,2.9-13.2c4-10.4,12.2-16.8,24.1-18.2c10.6-1.3,21.3-2.1,32-2.5c18.2-0.7,36.4-1.1,54.6-1.1c17,0,33.9,0.4,50.9,1
		c10.2,0.3,20.3,1.2,30.5,1.9c5,0.4,10,1,14.6,3c9.7,4,15.1,11.1,17.2,20.5c1.9,8.6,2.8,17.2,3.3,25.9
		C306.8,175.1,307,187.7,306.3,200.3z"/>
</g>
</svg>
